<?xml version="1.0" encoding="utf-8"?>
<!-- Generator: Adobe Illustrator 22.0.1, SVG Export Plug-In . SVG Version: 6.00 Build 0)  -->
<svg version="1.1" id="Layer_1" xmlns="http://www.w3.org/2000/svg" xmlns:xlink="http://www.w3.org/1999/xlink" x="0px" y="0px"
	 viewBox="0 0 512 426.9" style="enable-background:new 0 0 512 426.9;" xml:space="preserve">
<style type="text/css">
	.st0{fill:url(#SVGID_1_);}
	.st1{fill:url(#SVGID_2_);}
</style>
<g>
	<g>
		<g>
			
				<linearGradient id="SVGID_1_" gradientUnits="userSpaceOnUse" x1="87.218" y1="423.5126" x2="454.5926" y2="56.138" gradientTransform="matrix(1 0 0 -1 0 427.8756)">
				<stop  offset="0" style="stop-color:#009AB4"/>
				<stop  offset="1" style="stop-color:#86BB53"/>
			</linearGradient>
			<path class="st0" d="M480,0h-42.7c-14.1,0-26.2,9.2-30.4,22c-18.8,2.8-24.6,14.7-27.4,25.3l-10.2,38H10.7c-3.3,0-6.4,1.5-8.5,4.2
				s-2.7,6.1-1.8,9.3l11.4,42.7c1.2,4.7,5.5,7.9,10.3,7.9h9l26.5,98.8c0,0.1,0.1,0.2,0.1,0.3c0,0.2,0.1,0.3,0.2,0.5
				c0.1,0.2,0.1,0.3,0.2,0.5c0,0.1,0.1,0.2,0.2,0.4c0.3,0.6,0.6,1.2,1,1.7c0,0,0,0.1,0.1,0.1c0.2,0.2,0.3,0.5,0.5,0.7
				c0.1,0.1,0.1,0.1,0.2,0.2c0.2,0.2,0.3,0.4,0.5,0.5c0.1,0.1,0.1,0.1,0.2,0.2c0.2,0.1,0.3,0.3,0.5,0.4c0.1,0.1,0.2,0.1,0.3,0.2
				c0.2,0.1,0.3,0.2,0.5,0.4c0.1,0.1,0.2,0.1,0.3,0.2c0.3,0.2,0.5,0.3,0.8,0.5c0.1,0.1,0.2,0.1,0.4,0.2s0.3,0.2,0.5,0.2
				c0.1,0.1,0.3,0.1,0.4,0.1c0.2,0.1,0.4,0.1,0.6,0.2c0.1,0,0.2,0.1,0.3,0.1c0.2,0.1,0.5,0.1,0.7,0.2c0.1,0,0.1,0,0.2,0
				c0.4,0.1,0.7,0.1,1.1,0.1l251.1,20.3l-6,22.4H85c-5.9,0-10.7,4.8-10.7,10.7s4.8,10.7,10.7,10.7h29.5l-5.9,22.2
				c-19.5,3.9-34.3,21.2-34.3,41.8c0,23.5,19.1,42.7,42.7,42.7h0.1h53.2c5.9,0,10.7-4.8,10.7-10.7c0-5.9-4.8-10.7-10.7-10.7h-16.4
				c3.6-6.3,5.7-13.6,5.7-21.3c0-18.9-12.3-34.9-29.3-40.5l6.3-23.5h132.1l6.3,23.5c-17,5.6-29.3,21.7-29.3,40.5
				c0,23.5,19.1,42.7,42.7,42.7h0.1H395c5.9,0,10.7-4.8,10.7-10.7c0-5.9-4.8-10.7-10.7-10.7h-69.7c3.6-6.3,5.7-13.6,5.7-21.3
				c0-20.6-14.7-37.9-34.3-41.8l-5.9-22.2h29.5l0,0c0.3,0,0.7,0,1-0.1c0.1,0,0.2,0,0.2,0c0.2,0,0.5-0.1,0.7-0.1c0.1,0,0.2,0,0.4-0.1
				c0.2,0,0.4-0.1,0.6-0.1c0.1,0,0.3-0.1,0.4-0.1c0.2-0.1,0.3-0.1,0.5-0.2c0.1-0.1,0.3-0.1,0.4-0.2c0.3-0.1,0.5-0.2,0.8-0.4
				c0.1-0.1,0.3-0.2,0.4-0.2c0.1-0.1,0.3-0.2,0.4-0.3c0.1-0.1,0.2-0.2,0.4-0.3c0.1-0.1,0.3-0.2,0.4-0.3c0.1-0.1,0.2-0.2,0.3-0.3
				c0.1-0.1,0.3-0.3,0.4-0.4s0.2-0.2,0.2-0.2c0.2-0.2,0.3-0.4,0.5-0.5c0-0.1,0.1-0.1,0.2-0.2c0.2-0.2,0.4-0.5,0.6-0.8
				c0-0.1,0.1-0.1,0.1-0.2c0.1-0.2,0.3-0.4,0.4-0.6c0.1-0.1,0.1-0.3,0.2-0.4s0.1-0.3,0.2-0.4c0.1-0.2,0.1-0.3,0.2-0.5
				c0-0.1,0.1-0.3,0.1-0.4c0.1-0.2,0.1-0.4,0.2-0.6v-0.1l11.4-42.5v-0.1l32.4-120.3h9c4.8,0,9.1-3.2,10.3-7.9L405,98.7
				c0.9-3.2,0.2-6.6-1.8-9.3c-2-2.6-5.1-4.2-8.5-4.2h-3.2l8.7-32.6c1.3-4.7,2.1-7.8,7.3-9.3c4.6,12,16.3,20.5,29.9,20.5H480
				c17.6,0,32-14.4,32-32C512,14.3,497.6,0,480,0z M138.3,384c0,11.7-9.5,21.3-21.3,21.3l0,0l0,0c-11.8,0-21.3-9.6-21.3-21.3
				s9.6-21.3,21.3-21.3l0,0l0,0C128.8,362.6,138.3,372.2,138.3,384z M309.7,384c0,11.7-9.5,21.3-21.3,21.3h-0.1l0,0
				c-11.8,0-21.3-9.6-21.3-21.3c0-11.8,9.6-21.3,21.3-21.3l0,0l0,0C300.1,362.6,309.7,372.2,309.7,384z M346.5,170.6H226.7
				c-5.9,0-10.7,4.8-10.7,10.7s4.8,10.7,10.7,10.7h114.1l-5.8,21.3h-55.8c-5.9,0-10.7,4.8-10.7,10.7s4.8,10.7,10.7,10.7h50.1
				l-5.5,20.7L76.2,235.3l-23-86h299L346.5,170.6z M375,128H30.3l-5.7-21.3h352.9l0,0c0,0,0,0,0.1,0h3.2L375,128z M480,42.6h-42.7
				c-5.9,0-10.7-4.8-10.7-10.7c0-5.9,4.8-10.7,10.7-10.7H480c5.9,0,10.7,4.8,10.7,10.7C490.7,37.8,485.9,42.6,480,42.6z"/>
			
				<linearGradient id="SVGID_2_" gradientUnits="userSpaceOnUse" x1="179.1425" y1="255.7381" x2="197.4277" y2="237.4529" gradientTransform="matrix(1 0 0 -1 0 427.8756)">
				<stop  offset="0" style="stop-color:#009AB4"/>
				<stop  offset="1" style="stop-color:#86BB53"/>
			</linearGradient>
			<path class="st1" d="M185.1,192h6.4c5.9,0,10.7-4.8,10.7-10.7s-4.8-10.7-10.7-10.7h-6.4c-5.9,0-10.7,4.8-10.7,10.7
				C174.4,187.2,179.2,192,185.1,192z"/>
		</g>
	</g>
</g>
</svg>
