<?xml version="1.0" encoding="utf-8"?>
<!-- Generator: Adobe Illustrator 22.0.1, SVG Export Plug-In . SVG Version: 6.00 Build 0)  -->
<svg version="1.1" id="Layer_1" xmlns="http://www.w3.org/2000/svg" xmlns:xlink="http://www.w3.org/1999/xlink" x="0px" y="0px"
	 viewBox="0 0 512 410.4" style="enable-background:new 0 0 512 410.4;" xml:space="preserve">
<style type="text/css">
	.st0{fill:url(#SVGID_1_);}
	.st1{fill:url(#SVGID_2_);}
	.st2{fill:url(#SVGID_3_);}
	.st3{fill:url(#SVGID_4_);}
	.st4{fill:url(#SVGID_5_);}
	.st5{fill:url(#SVGID_6_);}
	.st6{fill:url(#SVGID_7_);}
</style>
<g>
	<g>
		<g>
			
				<linearGradient id="SVGID_1_" gradientUnits="userSpaceOnUse" x1="30.9145" y1="425.7151" x2="279.5395" y2="177.09" gradientTransform="matrix(1 0 0 -1 0 411.6756)">
				<stop  offset="0" style="stop-color:#009AB4"/>
				<stop  offset="1" style="stop-color:#86BB53"/>
			</linearGradient>
			<path class="st0" d="M372.3,0H28.8C12.9,0,0,12.9,0,28.8v206.1c0,15.9,12.9,28.8,28.8,28.8h22.3v76.7c0,4.9,2.9,9.3,7.5,11.2
				c1.5,0.6,3.1,0.9,4.6,0.9c3.1,0,6.2-1.2,8.5-3.5l85.3-85.2h17.1c6.7,0,12.1-5.4,12.1-12.1c0-6.7-5.4-12.1-12.1-12.1
				c0,0-22.7,0-22.9,0c-2.8,0.2-5.6,1.3-7.7,3.5l-68.2,68.1c0,0,0-60.4-0.1-60.7c-0.5-6.2-5.7-11-12-11H28.8c-2.6,0-4.7-2.1-4.7-4.7
				v-206c0-2.6,2.1-4.7,4.7-4.7h343.5c2.6,0,4.7,2.1,4.7,4.7v79.1c0,6.7,5.4,12.1,12.1,12.1s12.1-5.4,12.1-12.1V28.8
				C401.1,12.9,388.2,0,372.3,0z"/>
		</g>
	</g>
	<g>
		<g>
			
				<linearGradient id="SVGID_2_" gradientUnits="userSpaceOnUse" x1="247.3875" y1="280.4881" x2="497.1926" y2="30.683" gradientTransform="matrix(1 0 0 -1 0 411.6756)">
				<stop  offset="0" style="stop-color:#009AB4"/>
				<stop  offset="1" style="stop-color:#86BB53"/>
			</linearGradient>
			<path class="st1" d="M483.2,147.7H242.8c-15.9,0-28.8,12.9-28.8,28.8v140.6c0,15.9,12.9,28.8,28.8,28.8h150.5l61,61
				c2.3,2.3,5.4,3.5,8.5,3.5c1.6,0,3.1-0.3,4.6-0.9c4.5-1.9,7.5-6.3,7.5-11.2v-52.4h8.3c15.9,0,28.8-12.9,28.8-28.8V176.5
				C512,160.6,499.1,147.7,483.2,147.7z M487.8,317.1c0,2.6-2.1,4.7-4.7,4.7h-20.4c-6.4,0-11.6,4.9-12,11.1c0,0.3-0.1,36.3-0.1,36.3
				l-43.9-43.9l-0.1-0.1c-0.2-0.2-0.3-0.3-0.5-0.4c-2.1-1.9-4.9-3-8-3H242.8c-2.6,0-4.7-2.1-4.7-4.7V176.5c0-2.6,2.1-4.7,4.7-4.7
				h240.4c2.6,0,4.7,2.1,4.7,4.7v140.6H487.8z"/>
		</g>
	</g>
	<g>
		<g>
			
				<linearGradient id="SVGID_3_" gradientUnits="userSpaceOnUse" x1="354.4281" y1="173.4287" x2="371.5065" y2="156.3503" gradientTransform="matrix(1 0 0 -1 0 411.6756)">
				<stop  offset="0" style="stop-color:#009AB4"/>
				<stop  offset="1" style="stop-color:#86BB53"/>
			</linearGradient>
			<path class="st2" d="M363,234.7c-6.7,0-12.1,5.4-12.1,12.1s5.4,12.1,12.1,12.1s12.1-5.4,12.1-12.1S369.6,234.7,363,234.7z"/>
		</g>
	</g>
	<g>
		<g>
			
				<linearGradient id="SVGID_4_" gradientUnits="userSpaceOnUse" x1="136.9906" y1="383.2912" x2="264.0157" y2="256.2662" gradientTransform="matrix(1 0 0 -1 0 411.6756)">
				<stop  offset="0" style="stop-color:#009AB4"/>
				<stop  offset="1" style="stop-color:#86BB53"/>
			</linearGradient>
			<path class="st3" d="M310.5,79.8H90.6c-6.7,0-12.1,5.4-12.1,12.1S83.9,104,90.6,104h219.8c6.7,0,12.1-5.4,12.1-12.1
				S317.1,79.8,310.5,79.8z"/>
		</g>
	</g>
	<g>
		<g>
			
				<linearGradient id="SVGID_5_" gradientUnits="userSpaceOnUse" x1="102.9781" y1="269.2787" x2="161.8031" y2="210.4537" gradientTransform="matrix(1 0 0 -1 0 411.6756)">
				<stop  offset="0" style="stop-color:#009AB4"/>
				<stop  offset="1" style="stop-color:#86BB53"/>
			</linearGradient>
			<path class="st4" d="M174.1,159.7H90.7c-6.7,0-12.1,5.4-12.1,12.1s5.4,12.1,12.1,12.1h83.4c6.7,0,12.1-5.4,12.1-12.1
				S180.7,159.7,174.1,159.7z"/>
		</g>
	</g>
	<g>
		<g>
			
				<linearGradient id="SVGID_6_" gradientUnits="userSpaceOnUse" x1="298.2835" y1="173.392" x2="315.3618" y2="156.3137" gradientTransform="matrix(1 0 0 -1 0 411.6756)">
				<stop  offset="0" style="stop-color:#009AB4"/>
				<stop  offset="1" style="stop-color:#86BB53"/>
			</linearGradient>
			<path class="st5" d="M306.8,234.7c-6.7,0-12.1,5.4-12.1,12.1s5.4,12.1,12.1,12.1s12.1-5.4,12.1-12.1S313.5,234.7,306.8,234.7z"/>
		</g>
	</g>
	<g>
		<g>
			
				<linearGradient id="SVGID_7_" gradientUnits="userSpaceOnUse" x1="410.5281" y1="173.4287" x2="427.6065" y2="156.3503" gradientTransform="matrix(1 0 0 -1 0 411.6756)">
				<stop  offset="0" style="stop-color:#009AB4"/>
				<stop  offset="1" style="stop-color:#86BB53"/>
			</linearGradient>
			<path class="st6" d="M419.1,234.7c-6.7,0-12.1,5.4-12.1,12.1s5.4,12.1,12.1,12.1s12.1-5.4,12.1-12.1S425.7,234.7,419.1,234.7z"/>
		</g>
	</g>
</g>
</svg>
