<?xml version="1.0" encoding="utf-8"?>
<!-- Generator: Adobe Illustrator 22.0.1, SVG Export Plug-In . SVG Version: 6.00 Build 0)  -->
<svg version="1.1" id="Layer_1" xmlns="http://www.w3.org/2000/svg" xmlns:xlink="http://www.w3.org/1999/xlink" x="0px" y="0px"
	 viewBox="0 0 512 296" style="enable-background:new 0 0 512 296;" xml:space="preserve">
<style type="text/css">
	.st0{fill:url(#SVGID_1_);}
	.st1{fill:url(#SVGID_2_);}
</style>
<g>
	<g>
		
			<linearGradient id="SVGID_1_" gradientUnits="userSpaceOnUse" x1="0" y1="149.2756" x2="512" y2="149.2756" gradientTransform="matrix(1 0 0 -1 0 297.2756)">
			<stop  offset="0" style="stop-color:#009AB4"/>
			<stop  offset="1" style="stop-color:#86BB53"/>
		</linearGradient>
		<path class="st0" d="M418,108c-13.9,0-27.1,3-39,8.5l-53-95v-6.3h65c10.7,0,19.4,8.7,19.4,19.4S401.7,54,391,54h-16.2v15.2H391
			c19.1,0,34.6-15.5,34.6-34.6S410.1,0,391,0h-80.2v25.4l22,39.4h-134l-7-17.2h16.7c12.6,0,22.8-10.2,22.8-22.8v-2
			c0-12.6-10.2-22.8-22.8-22.8h-56c-12.6,0-22.8,10.2-22.8,22.8v2c0,12.6,10.2,22.8,22.8,22.8h22.9l8.8,21.6l-40,53.3
			C129.6,113.3,112.4,108,94,108c-51.8,0-94,42.2-94,94s42.2,94,94,94c49.3,0,89.8-38.1,93.7-86.4h19.4c5.6,18.7,23,32.4,43.5,32.4
			c25,0,45.4-20.4,45.4-45.4c0-10.1-3.3-19.4-8.9-26.9l65-70.1l13.6,24.3C340.6,140.8,324,169.5,324,202c0,51.8,42.2,94,94,94
			s94-42.2,94-94S469.8,108,418,108z M152.4,32.4c-4.2,0-7.6-3.4-7.6-7.6v-2c0-4.2,3.4-7.6,7.6-7.6h56c4.2,0,7.6,3.4,7.6,7.6v2
			c0,4.2-3.4,7.6-7.6,7.6H152.4z M94,280.8c-43.4,0-78.8-35.3-78.8-78.8s35.3-78.8,78.8-78.8c15,0,29,4.2,41,11.5l-56.2,74.9h93.6
			C168.6,249.5,134.9,280.8,94,280.8z M109.2,194.4l37.9-50.5c14,12.8,23.4,30.6,25.3,50.5H109.2z M218.9,164.1
			c-0.3,0.3-0.5,0.5-0.8,0.8c-0.2,0.2-0.5,0.5-0.7,0.8s-0.5,0.5-0.7,0.8s-0.5,0.5-0.7,0.8s-0.5,0.6-0.7,0.9s-0.4,0.5-0.6,0.8
			c-0.2,0.3-0.4,0.6-0.7,0.9c-0.2,0.3-0.4,0.6-0.6,0.8c-0.2,0.3-0.4,0.6-0.6,0.9c-0.2,0.3-0.4,0.6-0.6,0.9c-0.2,0.3-0.4,0.6-0.6,0.9
			c-0.2,0.3-0.4,0.6-0.5,0.9c-0.2,0.3-0.4,0.6-0.5,1c-0.2,0.3-0.3,0.6-0.5,0.9s-0.3,0.7-0.5,1s-0.3,0.6-0.4,1
			c-0.1,0.3-0.3,0.7-0.4,1c-0.1,0.3-0.3,0.7-0.4,1c-0.1,0.3-0.3,0.7-0.4,1c-0.1,0.3-0.2,0.7-0.4,1c-0.1,0.3-0.2,0.7-0.3,1
			c-0.1,0.4-0.2,0.7-0.3,1.1s-0.2,0.7-0.3,1.1s-0.2,0.7-0.3,1.1s-0.2,0.7-0.2,1.1c-0.1,0.4-0.1,0.8-0.2,1.2c-0.1,0.3-0.1,0.7-0.2,1
			c-0.1,0.4-0.1,0.8-0.2,1.2c0,0.3-0.1,0.7-0.1,1c0,0.4-0.1,0.9-0.1,1.3c0,0.3-0.1,0.6-0.1,1c0,0,0,0,0,0.1h-17.6
			c-2-24.9-13.8-47.1-31.4-62.8l34.5-46l31,75.9c-0.2,0.1-0.3,0.3-0.5,0.4c-0.3,0.2-0.5,0.5-0.8,0.7s-0.5,0.5-0.8,0.7
			C219.4,163.7,219.1,163.9,218.9,164.1z M250.6,226.8c-15.1,0-27.6-11.1-29.8-25.5l-0.1-0.4l0,0c-0.1-0.7-0.2-1.3-0.2-2
			c0-0.1,0-0.2,0-0.3c0-0.7-0.1-1.3-0.1-2c0-16.6,13.5-30.2,30.2-30.2c0.5,0,1,0,1.5,0c0.1,0,0.3,0,0.4,0c0.4,0,0.7,0,1.1,0.1
			c0.1,0,0.3,0,0.4,0.1c0.4,0,0.7,0.1,1.1,0.1c0.1,0,0.3,0,0.4,0.1c0.4,0.1,0.7,0.1,1.1,0.2c0.1,0,0.2,0,0.3,0.1
			c0.4,0.1,0.8,0.2,1.2,0.3c0.1,0,0.1,0,0.2,0.1c0.4,0.1,0.8,0.2,1.3,0.4h0.1c0.4,0.1,0.9,0.3,1.3,0.4l0,0c2.8,1,5.3,2.4,7.6,4.1
			c0,0,0.1,0,0.1,0.1c0.4,0.3,0.7,0.5,1,0.8c0.1,0,0.1,0.1,0.2,0.1c0.3,0.3,0.6,0.5,0.9,0.8c0.1,0.1,0.1,0.1,0.2,0.2
			c6,5.5,9.8,13.4,9.8,22.2C280.8,213.3,267.2,226.8,250.6,226.8z M276.2,159.1c-4.9-3.4-10.5-5.7-16.3-7c-0.1,0-0.1,0-0.2,0
			c-1.4-0.3-2.8-0.5-4.2-0.7c-0.2,0-0.3,0-0.5,0c-0.5-0.1-1.1-0.1-1.6-0.1c-0.2,0-0.4,0-0.6,0c-0.7,0-1.4-0.1-2.1-0.1
			c-0.8,0-1.5,0-2.3,0.1c-0.3,0-0.5,0-0.8,0.1c-0.5,0-1,0.1-1.5,0.1c-0.3,0-0.6,0.1-0.9,0.1c-0.4,0.1-0.9,0.1-1.3,0.2
			c-0.3,0-0.6,0.1-1,0.2s-0.8,0.1-1.2,0.2c-0.3,0.1-0.7,0.1-1,0.2c-0.4,0.1-0.8,0.2-1.2,0.3c-0.3,0.1-0.7,0.2-1,0.3
			c-0.4,0.1-0.8,0.2-1.1,0.3c-0.3,0.1-0.7,0.2-1,0.3c-0.4,0.1-0.7,0.2-1.1,0.4c-0.1,0-0.1,0-0.2,0.1L204.9,80h136.3l3.1,5.6
			L276.2,159.1z M418,280.8c-43.4,0-78.8-35.3-78.8-78.8c0-26.8,13.5-50.5,34-64.7l38.2,68.5l13.3-7.4l-38.2-68.5
			c9.7-4.2,20.3-6.6,31.6-6.6c43.4,0,78.8,35.3,78.8,78.8C496.8,245.4,461.4,280.8,418,280.8z"/>
	</g>
</g>
<g>
	<g>
		
			<linearGradient id="SVGID_2_" gradientUnits="userSpaceOnUse" x1="243.043" y1="101.7756" x2="259.243" y2="101.7756" gradientTransform="matrix(1 0 0 -1 0 297.2756)">
			<stop  offset="0" style="stop-color:#009AB4"/>
			<stop  offset="1" style="stop-color:#86BB53"/>
		</linearGradient>
		<rect x="243" y="187.9" class="st1" width="16.2" height="15.2"/>
	</g>
</g>
</svg>
